<svg width="144" height="16" viewBox="0 0 144 16" fill="none" xmlns="http://www.w3.org/2000/svg">
<g id="#6570bcff">
<path id="Vector" d="M54.4936 0.562612C56.8668 -0.493178 60.064 -0.098404 61.7142 2.04761C61.6018 2.13712 61.3746 2.32073 61.2598 2.41254C60.103 0.615402 57.7045 0.18161 55.7444 0.629173C54.2457 0.939025 52.6826 2.07056 52.6436 3.72769C52.5885 5.775 52.6482 7.82232 52.6184 9.86964C52.6184 10.8864 52.5449 12.034 53.261 12.858C54.567 14.421 56.8668 14.7905 58.7672 14.3085C60.0915 14.0056 61.3562 13.0508 61.6798 11.6828C61.907 10.4985 61.7785 9.28436 61.8106 8.08627C60.3073 8.09315 58.8016 8.07938 57.2983 8.09774C57.3098 7.96692 57.335 7.70297 57.3488 7.57214C59.0059 7.57214 60.663 7.57214 62.3225 7.57214C62.2903 8.95615 62.4212 10.3493 62.2123 11.7219C61.9644 13.2849 60.4886 14.3131 59.0633 14.7286C57.3373 15.1601 55.3864 15.0499 53.8647 14.063C52.7515 13.3721 52.0216 12.1029 52.0606 10.7831C52.0423 8.56596 52.0423 6.3488 52.0606 4.13164C52.0147 2.5755 53.0935 1.15936 54.4936 0.562612Z" fill="#00A3FF"/>
<path id="Vector_2" d="M0.009181 0.170105C2.9172 0.170105 5.82291 0.170105 8.73093 0.170105C8.73093 0.298636 8.73093 0.557993 8.73093 0.686524C5.99505 0.686524 3.25918 0.684229 0.5256 0.686524C0.523305 2.87155 0.530191 5.05658 0.52101 7.23931C3.0572 7.20947 5.59569 7.23701 8.13418 7.22554C8.12041 7.36784 8.09516 7.65704 8.08368 7.80163C5.56356 7.80163 3.04343 7.79934 0.5256 7.80163C0.5256 9.966 0.527895 12.1304 0.523305 14.2924C3.25918 14.281 5.99505 14.2902 8.73322 14.2879C8.73093 14.4164 8.72863 14.6735 8.72634 14.8043C5.81832 14.7974 2.91031 14.8135 0 14.7951C0.0206568 9.9201 0.00229541 5.0451 0.009181 0.170105Z" fill="#00A3FF"/>
<path id="Vector_3" d="M11.6507 0.16095C12.034 0.16554 12.4196 0.167836 12.8029 0.167836C14.125 3.16995 15.4493 6.16748 16.7736 9.1673C17.212 10.1542 17.6848 11.1274 18.0153 12.1579C19.6426 8.12299 21.4834 4.17525 23.1933 0.174721C23.5559 0.170131 23.9186 0.16554 24.2812 0.16095C24.2789 5.04742 24.2766 9.9316 24.2835 14.8158L23.7487 14.841C23.7694 10.005 23.7854 5.16907 23.7395 0.335385C21.8758 4.33821 20.1751 8.41907 18.3665 12.4494C18.1829 12.4494 17.811 12.4517 17.6251 12.4517C16.2618 9.37387 14.8961 6.29831 13.5282 3.22274C13.122 2.30925 12.7708 1.36134 12.2131 0.523591C12.1212 5.27924 12.1993 10.0372 12.174 14.7928C12.0432 14.7997 11.7793 14.8112 11.6484 14.8181C11.6645 9.9316 11.6622 5.04742 11.6507 0.16095Z" fill="#00A3FF"/>
<path id="Vector_4" d="M28.1192 0.16095C31.0204 0.177016 33.9215 0.177016 36.8203 0.16095C36.8089 0.291776 36.7836 0.555724 36.7698 0.68655C34.0592 0.68655 31.3486 0.68655 28.6403 0.68655C28.6334 2.86928 28.6494 5.04972 28.6288 7.23245C31.165 7.21638 33.6989 7.24393 36.2328 7.21638C36.2259 7.36328 36.2144 7.65477 36.2075 7.79936C33.6851 7.80395 31.1627 7.80166 28.6403 7.80166C28.6334 9.96603 28.6494 12.1304 28.6311 14.2948C31.3509 14.2741 34.0707 14.2948 36.7905 14.2856C36.7951 14.4141 36.8066 14.6758 36.8134 14.8043C33.91 14.8112 31.0066 14.7814 28.1055 14.8204C28.1445 9.9339 28.1169 5.04742 28.1192 0.16095Z" fill="#00A3FF"/>
<path id="Vector_5" d="M39.7741 0.163269C41.5896 0.193107 43.4051 0.135727 45.2206 0.188516C46.421 0.259667 47.766 0.493777 48.5693 1.48071C49.3635 2.29321 49.4828 3.4959 49.4553 4.57464C49.3933 5.64649 49.0031 6.80327 48.0781 7.42986C46.9535 8.224 45.5121 8.25613 44.1901 8.27679C45.8656 10.4435 47.4791 12.656 49.1569 14.8204C48.9916 14.8181 48.6634 14.8112 48.4982 14.8066C46.8755 12.6239 45.2436 10.4458 43.6232 8.26072C42.5123 8.26072 41.4014 8.26072 40.2905 8.26072C40.2997 10.4549 40.2699 12.6514 40.3112 14.8456C40.1758 14.8365 39.9049 14.8181 39.7695 14.8089C39.7833 9.92704 39.7741 5.04515 39.7741 0.163269ZM40.286 0.617718C40.2974 3.0139 40.2882 5.40779 40.2928 7.80168C41.9408 7.78562 43.591 7.83152 45.239 7.78562C46.3545 7.73053 47.6375 7.5056 48.3329 6.53244C49.1431 5.38255 49.1615 3.81952 48.6795 2.5388C48.3077 1.58629 47.4057 0.900028 46.3935 0.771497C44.3714 0.486892 42.3218 0.693459 40.286 0.617718Z" fill="#00A3FF"/>
<path id="Vector_6" d="M65.4795 0.163269C68.3669 0.17704 71.2543 0.165564 74.1439 0.170154C74.1439 0.298685 74.1439 0.558043 74.1439 0.686574C71.4287 0.686574 68.7135 0.686574 65.996 0.686574C65.9868 2.8739 66.0189 5.05892 65.9776 7.24625C68.5 7.20264 71.0224 7.24166 73.5449 7.22329C73.5334 7.36789 73.5104 7.65709 73.4967 7.80168C70.9972 7.80168 68.4977 7.80168 65.996 7.80168C65.9937 9.96605 66.0006 12.1304 65.9914 14.2971C68.7089 14.2764 71.4264 14.2902 74.1439 14.2879C74.1439 14.4164 74.1416 14.6735 74.1416 14.802C71.252 14.8089 68.3623 14.7883 65.4727 14.8158C65.4887 9.93162 65.4795 5.04745 65.4795 0.163269Z" fill="#00A3FF"/>
<path id="Vector_7" d="M76.0905 0.264221C76.6781 0.319306 77.4034 0.128805 77.8257 0.658995C80.1209 2.91517 82.4298 5.15529 84.7342 7.40228C84.7319 5.04741 84.7388 2.69484 84.7365 0.339963C85.9943 0.342258 87.2543 0.323896 88.5144 0.337667C88.5282 5.15988 88.5006 9.98209 88.5121 14.8043C88.0668 14.802 87.6239 14.7997 87.1832 14.7974C84.7641 12.4173 82.322 10.0624 79.9005 7.68459C79.9464 10.0578 79.8891 12.4311 79.8982 14.8043C78.629 14.7997 77.3598 14.802 76.0905 14.802C76.0928 9.95454 76.0882 5.10938 76.0905 0.264221ZM86.5061 4.59067C86.5107 6.90193 86.5061 9.21319 86.5061 11.5245C85.5421 10.5651 84.6057 9.57584 83.6073 8.65317C81.6655 6.84455 79.8523 4.90511 77.8739 3.13551C77.8004 5.07266 77.8945 7.0121 77.8417 8.94925C77.8739 10.4801 77.7568 12.0179 77.9221 13.5419C78.0437 13.0944 78.1034 12.6307 78.0988 12.1648C78.0781 9.31648 78.0873 6.46814 78.0873 3.6198C80.9999 6.37174 83.807 9.23156 86.7127 11.9904C86.7769 9.44501 86.6989 6.89734 86.7356 4.34967C86.7379 3.39716 86.7724 2.43777 86.6553 1.48986C86.4235 2.50663 86.513 3.55553 86.5061 4.59067Z" fill="#00A3FF"/>
<path id="Vector_8" d="M92.1758 0.344553C95.1802 0.323896 98.1869 0.351439 101.194 0.342258C101.196 1.43248 101.194 2.52269 101.194 3.61291C99.4125 3.61291 97.6315 3.61291 95.8527 3.61291C95.8504 4.30147 95.8504 4.99233 95.8527 5.68089C97.4915 5.6763 99.1279 5.67859 100.767 5.67859C100.767 6.76881 100.767 7.85903 100.767 8.94925C99.1279 8.94925 97.4892 8.94925 95.8504 8.94925C95.8504 9.79158 95.8504 10.6316 95.8504 11.474C97.6934 11.474 99.5388 11.4717 101.382 11.4763C101.38 12.5848 101.382 13.6934 101.38 14.802C98.3131 14.7997 95.2445 14.8043 92.1781 14.802C92.1781 9.98208 92.1758 5.16447 92.1758 0.344553ZM93.9132 1.88004C93.9064 5.6717 93.9109 9.46107 93.9087 13.2527C95.9973 13.1793 98.102 13.4134 100.175 13.1173C98.1708 12.9176 96.1534 13.0691 94.1428 13.0232C94.1405 11.1572 94.1451 9.29123 94.1405 7.42524C95.9307 7.21637 97.7347 7.32195 99.5319 7.23932C97.7416 7.06489 95.9376 7.19572 94.1451 7.23932C94.1405 5.50645 94.1428 3.77358 94.1428 2.0407C96.0937 1.9466 98.0607 2.17153 100 1.92365C97.9757 1.79512 95.9422 1.85938 93.9132 1.88004Z" fill="#00A3FF"/>
<path id="Vector_9" d="M126.232 0.342274C127.4 0.342274 128.566 0.342274 129.734 0.344569C129.73 3.52112 129.741 6.69538 129.732 9.87193C129.741 10.93 129.457 12.0133 128.789 12.8488C126.519 15.6811 121.593 15.7201 119.31 12.8878C118.561 11.9881 118.32 10.7923 118.346 9.647C118.35 6.54619 118.348 3.44538 118.35 0.344569C119.511 0.342274 120.673 0.339979 121.837 0.344569C121.83 3.2916 121.843 6.23634 121.827 9.18337C121.843 9.81685 121.791 10.5674 122.296 11.0471C123.202 11.871 124.735 11.8756 125.686 11.1205C126.19 10.712 126.239 10.0188 126.236 9.41978C126.227 6.39471 126.23 3.36734 126.232 0.342274ZM119.943 3.1952C119.971 5.3481 119.941 7.4987 119.952 9.6493C119.954 10.5261 120.154 11.4556 120.781 12.1075C122.502 13.9115 125.789 13.8518 127.421 11.956C128.376 10.7877 128.079 9.18567 128.125 7.79478C128.059 5.69467 128.265 3.5785 128.001 1.48987C127.776 3.5808 127.953 5.69467 127.9 7.79478C127.848 9.18108 128.167 10.8015 127.166 11.9399C125.589 13.6429 122.541 13.6613 120.941 11.9812C119.968 10.9071 120.212 9.3601 120.184 8.03118C120.14 5.86452 120.287 3.68867 120.099 1.52889C119.959 2.07285 119.929 2.63747 119.943 3.1952Z" fill="#00A3FF"/>
<path id="Vector_10" d="M134.077 1.39119C136.361 -0.371522 139.933 -0.348569 142.143 1.53349C143.104 2.31845 143.474 3.56015 143.6 4.75136C142.453 4.76513 141.305 4.76054 140.157 4.76283C139.735 3.12865 137.523 3.01619 136.402 3.9664C135.783 4.52643 135.989 5.74059 136.859 5.91732C138.734 6.45669 140.892 6.14684 142.563 7.31739C143.756 8.10693 144.098 9.65849 143.979 11.0012C143.837 12.4081 142.87 13.6384 141.629 14.2672C139.531 15.3322 136.946 15.3758 134.819 14.3705C133.286 13.659 132.361 12.0684 132.273 10.4067C133.439 10.3723 134.605 10.3815 135.771 10.3861C136.024 10.813 136.249 11.3294 136.763 11.4969C137.844 11.8871 139.244 11.9491 140.151 11.1343C140.678 10.6431 140.362 9.71357 139.685 9.55291C138.007 9.08239 136.164 9.24076 134.571 8.4558C132.023 7.15443 131.833 3.07816 134.077 1.39119ZM135.122 2.67421C133.919 3.64278 133.878 5.62353 134.876 6.74818C135.755 7.58134 137.036 7.66167 138.179 7.79479C139.336 7.92561 140.678 7.87971 141.539 8.80008C142.354 9.84669 142.209 11.536 141.158 12.376C139.976 13.2826 138.369 13.5098 136.937 13.1954C135.9 12.9842 135.103 12.2681 134.318 11.614C135.129 13.1678 137.002 13.7233 138.647 13.5351C140.022 13.441 141.525 12.796 142.097 11.4579C142.542 10.3126 142.219 8.75189 141.055 8.16202C139.389 7.33345 137.394 7.81544 135.712 7.06262C134.188 6.3557 134.015 4.06739 135.179 2.95881C136.297 1.87548 138.067 1.65973 139.512 2.12565C140.357 2.37353 140.958 3.05062 141.656 3.54638C140.378 1.28561 137.013 1.13872 135.122 2.67421Z" fill="#00A3FF"/>
<path id="Vector_11" d="M103.361 0.360612C104.67 0.326184 105.98 0.353726 107.288 0.333069C108.094 1.59313 108.849 2.88303 109.655 4.1431C110.447 2.88074 111.225 1.6092 112.01 0.34225C113.322 0.34684 114.638 0.323888 115.95 0.367497C115.622 1.43476 114.886 2.28628 114.289 3.20666C113.414 4.50803 112.535 5.80941 111.661 7.11078C112.767 8.79775 113.878 10.4824 114.984 12.1671C115.53 13.0071 116.18 13.8036 116.474 14.7813C115.094 14.8158 113.717 14.8066 112.342 14.7882C111.468 13.2436 110.571 11.7127 109.666 10.1886C108.734 11.7127 107.86 13.2665 106.949 14.802C105.588 14.7951 104.224 14.8204 102.863 14.7813C103.04 14.2741 103.242 13.7737 103.552 13.3308C104.931 11.272 106.272 9.18564 107.635 7.11538C106.437 5.3343 105.253 3.54634 104.038 1.77675C103.731 1.34755 103.531 0.856374 103.361 0.360612ZM105.999 1.52428C107.047 3.46601 108.388 5.2379 109.551 7.11308C108.234 9.29811 106.657 11.3362 105.505 13.6154C106.191 12.913 106.662 12.0455 107.194 11.2284C108.011 9.95224 108.838 8.6807 109.655 7.40228C111.069 9.43812 112.23 11.6576 113.8 13.5764C112.6 11.3362 111.089 9.27975 109.763 7.11308C110.91 5.24479 112.253 3.49356 113.267 1.54952C111.918 3.22043 110.883 5.12085 109.655 6.88127C108.42 5.10708 107.378 3.19059 105.999 1.52428Z" fill="#00A3FF"/>
</g>
</svg>
